<svg height="90" viewBox="0 0 90 90" width="90" xmlns="http://www.w3.org/2000/svg"><g fill="none" fill-rule="evenodd"><circle cx="45" cy="45" fill="#f1f4fb" r="44.25" stroke="#e6edfd" stroke-width="1.5"/><path d="m48.0000771 24.1666667v25.5483962c8.4457744.6011225 12.6686616 3.1961016 12.6686616 7.7849371s-2.3785407 7.9221689-7.135622 10l-5.5330396-3.0521152c-2.0000514-2.9652565-3.0000771-5.2812181-3.0000771-6.9478848 0 0-4.8611111 0-14.5833333 0l-2.6377773-1.0101317-1.5288894-2.2114492v-26.7412494l1.5288894-2.2880298 2.6377773-1.0824732z" fill="#fff"/><g transform="translate(20 20)"><g stroke="#3753c9" stroke-linecap="round" stroke-linejoin="round" stroke-width="2" transform="translate(6.25 4.166667)"><path d="m6.25 15.625h16.666667"/><path d="m6.25 8.708333h16.666667"/><path d="m6.354167 22.916667h8.229166"/><path d="m18.7833333 33.3333333h-14.61666663c-2.30208334 0-4.16666667-1.8645833-4.16666667-4.1666666v-25.00000003c0-2.30208334 1.86458333-4.16666667 4.16666667-4.16666667h20.83333333c2.3020833 0 4.1666667 1.86458333 4.1666667 4.16666667v19.06666663"/><g transform="translate(18.75 23.333333)"><path d="m10 0c-5.522 0-10 4.478-10 10s4.478 10 10 10c5.524 0 10-4.478 10-10s-4.476-10-10-10"/><path d="m10 14.16v.84"/><path d="m10 5.84v-.84"/><path d="m5.68 12.5.72-.42"/><path d="m14.32 7.5-.72.42"/><path d="m6.4 7.92-.72-.42"/><path d="m14.32 12.5-.72-.42"/></g></g><path d="m0 0h50v50h-50z"/></g></g></svg>