<svg height="90" viewBox="0 0 90 90" width="90" xmlns="http://www.w3.org/2000/svg"><g fill="none" fill-rule="evenodd"><circle cx="45" cy="45" fill="#f1f4fb" r="44.25" stroke="#e6edfd" stroke-width="1.5"/><path d="m53.4830275 31.255609-3.7770084 10.7480295c-.3662075 1.0420968.1817092 2.1837531 1.223806 2.5499605.2130545.0748704.4372504.1131167.6630773.1131167h2.794302c1.1045695 0 2 .8954305 2 2 0 .2704312-.054844.5380533-.1612162.7866855l-4.9060338 11.4672717-.8324544-10.3977562h-9.1461l-.5028046-1.6935947 11.4530713-16.412685z" fill="#fff"/><g transform="translate(20 20)"><path d="m0 0h50v50h-50z"/><g stroke="#3753c9" stroke-linecap="round" stroke-linejoin="round" stroke-width="2" transform="translate(4.166667 10.416667)"><path d="m29.925 1.325v9.7291667h8.3020833c.4930724-.0112591.9513434.2531298 1.1884035.6856222.2370602.4324923.2134139.9610325-.0613201 1.3706278l-10.5541667 15.4645833c-.332726.4865664-.9412925.7030074-1.5065344.5358098-.5652418-.1671975-.9581379-.6798696-.9726323-1.2691431v-9.7354167h-8.2979166c-.4930724.0112591-.9513434-.2531299-1.1884035-.6856222-.2370602-.4324923-.2134139-.9610325.0613201-1.3706278l10.55-15.45833333c.332726-.48656637.9412925-.70300745 1.5065344-.53580985s.958138.67986962.9726323 1.26914318z"/><path d="m14.583333 27.083333h-10.9375"/><path d="m9.114583 15.625h-9.114583"/><path d="m14.583333 4.166667h-10.9375"/></g></g></g></svg>