<?xml version="1.0" encoding="UTF-8"?>
<svg width="40px" height="40px" viewBox="0 0 40 40" version="1.1" xmlns="http://www.w3.org/2000/svg" xmlns:xlink="http://www.w3.org/1999/xlink">
    <title>Windows</title>
    <g id="CoinUs" stroke="none" stroke-width="1" fill="none" fill-rule="evenodd">
        <g id="CoinUs---Project" transform="translate(-389.000000, -3408.000000)">
            <g id="Run-Your-Code" transform="translate(0.000000, 3147.000000)">
                <g id="Windows" transform="translate(389.000000, 261.000000)">
                    <path d="M31.1183333,34.12 L7.785,30.2316667 C6.17833333,29.9633333 5,28.5733333 5,26.9433333 L5,13.0566667 C5,11.4266667 6.17833333,10.0366667 7.785,9.76833333 L31.1183333,5.88 C33.15,5.54166667 35,7.10833333 35,9.16666667 L35,30.8333333 C35,32.8916667 33.15,34.4583333 31.1183333,34.12 Z" id="Path" stroke="#172462" stroke-width="2" stroke-linecap="round" stroke-linejoin="round"></path>
                    <line x1="17.5" y1="8.15" x2="17.5" y2="31.85" id="Path" stroke="#172462" stroke-width="2" stroke-linecap="round" stroke-linejoin="round"></line>
                    <line x1="5" y1="19.7666667" x2="35" y2="19.7666667" id="Path" stroke="#172462" stroke-width="2" stroke-linecap="round" stroke-linejoin="round"></line>
                    <polygon id="Path" transform="translate(20.000000, 20.000000) rotate(-90.000000) translate(-20.000000, -20.000000) " points="0 0 40 0 40 40 0 40"></polygon>
                </g>
            </g>
        </g>
    </g>
</svg>