<svg height="40" viewBox="0 0 40 40" width="40" xmlns="http://www.w3.org/2000/svg"><g fill="none" fill-rule="evenodd"><path d="m0 0h40v40h-40z"/><path d="m16.2866667 0c1.1485408 0 2.2512306.45701703 3.0637734 1.26955989l4.7133333 4.71333333c.8125429.81254286 1.2695599 1.91523263 1.2695599 3.06377345v18.62000003c0 2.3939514-1.9393819 4.3333333-4.3333333 4.3333333h-16.66666667c-2.39395141 0-4.33333333-1.9393819-4.33333333-4.3333333v-23.33333337c0-2.39395141 1.93938192-4.33333333 4.33333333-4.33333333zm-1.9533334 25h-8.3333333l-.11662113.0067277c-.49733868.0577651-.88337887.4804365-.88337887.9932723 0 .5522847.44771525 1 1 1h8.3333333l.1166212-.0067277c.4973386-.0577651.8833788-.4804365.8833788-.9932723 0-.5522847-.4477152-1-1-1zm5-4.6166667h-13.3333333l-.11662113.0067278c-.49733868.0577651-.88337887.4804364-.88337887.9932722 0 .5522848.44771525 1 1 1h13.3333333l.1166212-.0067277c.4973386-.0577651.8833788-.4804364.8833788-.9932723 0-.5522847-.4477152-1-1-1zm0-5h-13.3333333l-.11662113.0067278c-.49733868.0577651-.88337887.4804364-.88337887.9932722 0 .5522848.44771525 1 1 1h13.3333333l.1166212-.0067277c.4973386-.0577651.8833788-.4804364.8833788-.9932723 0-.5522847-.4477152-1-1-1zm-9.58166663-10.3833333h-2.50333334l-.15399951.00518415c-1.17037601.07906336-2.09433382 1.0526263-2.09433382 2.24314918v2.50333334l.00518415.15399951c.07906336 1.17037602 1.0526263 2.09433382 2.24314918 2.09433382h2.50333334l.15399951-.0051841c1.17037602-.0790634 2.09433382-1.0526263 2.09433382-2.24314923v-2.50333334l-.0051841-.15399951c-.0790634-1.17037601-1.0526263-2.09433382-2.24314923-2.09433382z" fill="#172462" fill-rule="nonzero" stroke-linecap="round" stroke-linejoin="round" transform="translate(7.333333 4)"/></g></svg>