<svg height="29" viewBox="0 0 24 29" width="24" xmlns="http://www.w3.org/2000/svg"><path d="m12.1919989 8.3573079c1.1585994 0 3.3647947-1.5732473 5.6392109-1.33794225.951624.02728174 3.6596478.3694403 5.4067972 2.87367714-.141067.08298198-3.2260403 1.86538931-3.192508 5.52910031.0381575 4.3912242 3.9070932 5.8428404 3.954501 5.8587548-.0231257.1023065-.6058943 2.0950106-2.0570343 4.1184067-1.2117886 1.7812706-2.4813915 3.5227554-4.4979557 3.5545841-1.9587499.0443328-2.6178334-1.1333292-4.8644987-1.1333292-2.2674785 0-2.96934459 1.1015005-4.84831069 1.177662-1.92059242.0693411-3.3879204-1.901765-4.6436479-3.6671212-2.5102987-3.6046006-4.46442344-10.1579031-1.84427749-14.6173317 1.26960294-2.18708654 3.58448917-3.59550662 6.05894298-3.63301902 1.922905-.03864914 3.7070556 1.27655832 4.8887807 1.27655832zm5.6634929-8.3573079c.1919436 1.71533972-.4995159 3.40567117-1.5101106 4.64812731-1.0545336 1.22313157-2.7415561 2.15866808-4.3846397 2.0381737-.2150693-1.65054557.6174572-3.40567117 1.5494244-4.47647966 1.0533773-1.2151744 2.8826231-2.14616394 4.3453259-2.20982135z" fill="#3753c9"/></svg>