<?xml version="1.0" encoding="UTF-8"?>
<svg width="33px" height="42px" viewBox="0 0 33 42" version="1.1" xmlns="http://www.w3.org/2000/svg" xmlns:xlink="http://www.w3.org/1999/xlink">
    <title>Raspberry_Pi_Logo</title>
    <g id="CoinUs" stroke="none" stroke-width="1" fill="none" fill-rule="evenodd">
        <g id="CoinUs---Project" transform="translate(-784.000000, -3407.000000)" fill="#172462" fill-rule="nonzero" stroke="#172462" stroke-width="0.2">
            <g id="Run-Your-Code" transform="translate(0.000000, 3147.000000)">
                <g id="Raspberry_Pi_Logo" transform="translate(785.000000, 261.000000)">
                    <path d="M21.7712692,0.371338912 C22.3136117,0.199746388 22.7885384,-0.254039782 23.5059275,0.312064156 C24.109942,0.0790767085 24.6957233,-0.00186547727 25.2196653,0.472454672 C26.0282488,0.367530934 26.291369,0.58407219 26.4905858,0.836820084 C26.6681339,0.833145607 27.8193919,0.654277824 28.3472803,1.44177127 C29.6740112,1.28481612 30.0932653,2.22212692 29.6182008,3.09623431 L29.6182008,3.09623431 L29.7127349,3.24470716 C29.9425627,3.61854197 30.0953688,4.02418866 29.5362622,4.72977685 C29.7604184,5.17516112 29.621475,5.65831409 29.0934449,6.2430265 C29.2327955,6.86911297 28.9588803,7.3108569 28.4675732,7.65516039 C28.5594611,8.51192803 27.6818828,9.01010767 27.4198047,9.18758717 C27.3191816,9.68681618 27.1094611,10.1578912 26.1070432,10.41841 C25.9637722,11.0632052 25.4921662,11.2456788 24.9892072,11.3845033 L24.7559275,11.4470014 C26.6840686,12.5677568 28.3375548,14.0424078 28.3263598,17.6603905 L28.3263598,17.6603905 L28.6087866,18.1642259 C30.8197132,19.5088446 32.8088028,23.830405 29.6983961,27.3430962 C29.4952229,28.4425874 29.1544859,29.232299 28.8511158,30.1063459 C28.3973456,33.628275 25.4359063,35.2774259 24.6548117,35.4724547 C23.5102354,36.3443163 22.2911755,37.1715743 20.6415621,37.751046 C19.086463,39.3549211 17.4017367,39.9661869 15.7078103,39.9652531 L15.7078103,39.9652531 L15.6328452,39.9652531 C13.9389194,39.9661869 12.2541925,39.3549211 10.6990934,37.751046 C9.04948006,37.1715743 7.83042008,36.3443163 6.68584379,35.4724547 C5.90474923,35.2774259 2.94331013,33.628275 2.48953975,30.1063459 C2.18616954,29.232299 1.84543213,28.4425874 1.64225941,27.3430962 C-1.46814767,23.830405 0.520941813,19.5088446 2.7318689,18.1642259 L2.7318689,18.1642259 L3.01429568,17.6603905 C3.0031007,14.0424078 4.65658695,12.5677568 6.58472803,11.4470014 C6.00137015,11.290882 5.39892497,11.1624045 5.23361227,10.41841 C4.23119442,10.1578912 4.02147431,9.68681618 3.92085077,9.18758717 C3.65877294,9.01010767 2.78119442,8.51192803 2.87308229,7.65516039 C2.38177556,7.3108569 2.10786014,6.86911297 2.2472106,6.2430265 C1.71918098,5.65831409 1.58023676,5.17516117 1.80439331,4.72977685 C1.17073902,3.93011024 1.45149729,3.51570181 1.72245467,3.09623431 C1.24739035,2.22212692 1.66664446,1.28481612 2.99337517,1.44177127 C3.52126371,0.654277824 4.67252179,0.833145607 4.85006974,0.836820084 C5.04928653,0.58407219 5.31240669,0.367530946 6.12099024,0.472454672 C6.64493222,-0.00186548396 7.23071353,0.0790766862 7.83472803,0.312064156 C8.08133054,0.117465919 8.29878382,0.0428769428 8.50069735,0.0366108787 C8.88616904,0.0246483905 9.21347392,0.258731319 9.56938633,0.371338912 C10.148609,0.182114287 10.4299317,0.291825661 10.6795456,0.432900433 L10.8276385,0.519168323 C10.9019119,0.562043491 10.978123,0.602925058 11.0634589,0.634588563 C12.0104742,0.434416932 12.2983598,0.87021099 12.7527894,1.33019526 L12.7527894,1.33019526 L13.2810321,1.31973501 C14.7095414,2.16160156 15.4177372,3.87610996 15.6694561,4.75767085 C15.9210583,3.87624831 16.6308625,2.16174979 18.0596234,1.31973501 L18.0596234,1.31973501 L18.5878661,1.33019526 C19.0422957,0.87021099 19.3301813,0.434416948 20.2771967,0.634588563 C20.7038762,0.476271007 20.9024351,0.0875019247 21.7712692,0.371338912 Z M20.0594795,35.9560798 C20.0546834,35.0710577 17.6070745,34.4038851 15.7829495,34.4835007 C13.9702271,34.4381495 11.1902516,35.2098109 11.2240067,36.1981473 C11.1950209,36.8722338 13.4065573,38.8169757 15.6619152,38.7196865 C17.8396921,38.7572262 20.0897556,36.8155052 20.0594795,35.9560798 Z M26.7849082,26.66799 C25.58747,25.7417902 23.8684837,26.9271191 22.2605802,28.7426371 C20.8554577,30.3884753 20.0730059,33.3903085 21.0980781,34.3572982 C22.0781774,35.1084061 24.7091911,35.0034137 26.6526477,32.3067688 C28.0638605,30.4956273 27.5910092,27.4709389 26.7849082,26.66799 Z M9.04539693,29.2386996 C7.55501199,27.5093685 5.61866611,26.4782215 4.3654207,27.2416407 C3.52739018,27.8794432 3.37355654,30.0504307 4.56714382,32.1838577 C6.33696011,34.7262951 8.8269523,34.9810354 9.85228954,34.3624669 C10.9360893,33.5521718 10.3440915,30.8033149 9.04539693,29.2386996 Z M15.7632488,24.7871286 C13.2555491,24.7871286 11.2226568,26.661707 11.2226568,28.9741167 C11.2226568,31.2865264 13.2555491,33.1611049 15.7632488,33.1611049 C18.2709484,33.1611049 20.3038407,31.2865264 20.3038407,28.9741167 C20.3038407,26.661707 18.2709484,24.7871286 15.7632488,24.7871286 Z M2.76579476,26.6981071 C4.41851297,27.4323185 5.76426611,18.484289 3.73278957,19.0286081 C0.362276206,20.9533132 0.947843961,25.235754 2.76579476,26.6981071 Z M27.2065986,18.9170321 C25.1751219,18.372713 26.5208748,27.3207425 28.1735933,26.5865311 C29.9915442,25.124178 30.5771119,20.8417372 27.2065986,18.9170321 Z M13.1307227,17.0100858 C11.252731,15.7722911 8.54644887,16.5650355 7.08607236,18.78073 C5.62569585,20.9964245 5.96423983,23.7960306 7.84223149,25.0338253 C9.72022316,26.27162 12.4265053,25.4788757 13.8868818,23.2631812 C15.3472583,21.0474867 15.0087143,18.2478806 13.1307227,17.0100858 Z M24.2634518,18.557578 C22.8030753,16.3418835 20.0967931,15.5491391 18.2188015,16.7869338 C16.3408098,18.0247285 16.0022658,20.8243347 17.4626423,23.0400292 C18.9230188,25.2557236 21.629301,26.048468 23.5072926,24.8106733 C25.3852843,23.5728786 25.7238283,20.7732724 24.2634518,18.557578 Z M26.609928,17.5459615 C26.7273372,13.7448084 23.8106801,11.6621071 20.3052485,12.2540251 C19.0139046,12.4709785 26.4946181,19.0032067 26.609928,17.5459615 Z M10.6197908,12.1424491 C7.11435927,11.5505311 4.19770209,13.6332324 4.3151113,17.4343855 C4.4304212,18.8916307 11.9111347,12.3594025 10.6197908,12.1424491 Z M15.6551922,11.255547 C13.5629975,11.2011269 11.5550259,12.8083604 11.5502073,13.7405919 C11.5443861,14.8733261 13.2044039,16.0330695 15.6694561,16.0625082 C18.186781,16.0805395 19.7930605,15.1341685 19.8012046,13.9652089 C19.8103732,12.6408039 17.5117049,11.2350868 15.6551922,11.255547 Z M22.8751403,1.0478935 C22.1495805,1.316627 21.7758499,1.66354488 21.3823894,2.00607833 C21.2489897,1.82604748 21.0434806,1.69408904 21.2916139,1.25970282 C20.7764586,1.55664703 20.3884474,1.90656809 20.1014471,2.29857685 C19.8783313,2.15650942 19.874529,1.97788974 19.8917307,1.7957694 L19.8917307,1.7957694 L19.9069935,1.63957983 C19.9088528,1.61366231 19.9099845,1.58786608 19.9098103,1.56228748 C19.3744324,1.99779743 19.0346711,2.46125261 18.6187821,2.91383241 C18.5350059,2.85283174 18.4616491,2.64595459 18.396887,2.31874918 C17.1195989,3.55790204 15.3148279,6.67904156 17.9329238,7.91656569 C20.1599124,6.07850934 22.820853,4.74292379 25.7698672,3.74089724 C21.9792022,5.69522678 19.7756195,7.27612552 18.5683515,8.62259693 C19.1866137,11.1005657 22.4119431,11.2136508 23.5912575,11.1441356 C23.3497835,11.0317372 23.1483074,10.8971185 23.0768636,10.6902589 C23.3727905,10.4799487 24.4220736,10.6681004 25.1546114,10.256554 C24.8732128,10.1982561 24.7415861,10.1414622 24.6099593,9.93379693 L24.6099593,9.93379693 L25.0753081,9.78889977 C25.6182153,9.61985324 26.1449715,9.44157775 26.4859844,9.15716318 C26.2493729,9.16008647 26.028458,9.21009484 25.7194365,8.99578466 C26.3393356,8.66171548 27.0008374,8.39698354 27.5147721,7.88630739 C27.1942583,7.87846192 26.848694,7.88313863 26.7482243,7.76527364 C27.3156128,7.41377127 27.7943185,7.02285411 28.1905445,6.59527922 C27.74201,6.64942259 27.552593,6.60279833 27.444169,6.52467615 L27.444169,6.52467615 L27.6095642,6.3626818 L27.9537423,6.04672578 C28.2402236,5.78322879 28.5129175,5.51145948 28.6746801,5.17313138 C28.3416474,5.28791431 28.0369534,5.3318516 27.8173568,5.16304519 C27.9630957,4.8342612 28.5875331,4.64033289 28.9470064,3.87201724 C28.5964145,3.90601317 28.2245735,3.94850862 28.1501997,3.87201724 C28.3132296,3.20877802 28.5924569,2.83603264 28.8663169,2.44986923 C28.6897637,2.44724747 28.4918137,2.44602117 28.2929814,2.44485241 L27.9966356,2.44297519 C27.4615242,2.43899953 26.9973115,2.43040005 27.0306365,2.3893523 L27.0306365,2.3893523 L27.4945997,1.91530293 L27.2944568,1.87169056 C26.6270203,1.7591219 25.9622241,1.96245661 25.4672826,2.11702605 C25.2228273,1.92412893 25.4716117,1.68020709 25.7698672,1.43116748 C25.1469964,1.51432764 24.584159,1.65752112 24.075393,1.854786 C23.8035727,1.60935621 24.2519001,1.36392642 24.4687531,1.11849662 C23.5064457,1.30106667 23.0987582,1.55758616 22.6935894,1.81444139 C22.3996229,1.53266739 22.6767604,1.29319738 22.8751403,1.0478935 Z M8.55117545,1.0478935 L8.70457335,1.23152971 C8.85243013,1.41557638 8.95320126,1.60311089 8.73272636,1.81444139 C8.3275576,1.55758616 7.91987001,1.30106667 6.95756262,1.11849662 C7.17441562,1.36392642 7.6227431,1.60935621 7.35092273,1.854786 C6.84215676,1.65752112 6.27931939,1.51432764 5.65644854,1.43116748 C5.95470404,1.68020709 6.20348842,1.92412893 5.95903319,2.11702605 C5.41459749,1.94699967 4.66463743,1.71796731 3.93171598,1.91530293 L3.93171598,1.91530293 L4.39567916,2.3893523 C4.43203397,2.43413155 3.87627742,2.44029484 3.2823035,2.4439657 L2.98469608,2.44576066 C2.8368643,2.44672153 2.69241367,2.44790291 2.55999877,2.44986923 C2.8338588,2.83603264 3.11308608,3.20877802 3.27611582,3.87201724 C3.2017422,3.94850862 2.82990137,3.90601317 2.47930951,3.87201724 C2.83878254,4.64033289 3.46322036,4.8342612 3.608959,5.16304519 C3.38936229,5.3318516 3.08466812,5.28791431 2.7516357,5.17313138 C3.0104559,5.71445635 3.55326003,6.08539079 3.98214678,6.52467615 C3.8737229,6.60279833 3.68430561,6.64942259 3.23577121,6.59527922 C3.63199715,7.02285411 4.11070298,7.41377127 4.67809155,7.76527364 C4.57762187,7.88313863 4.23205763,7.87846192 3.91154365,7.88630739 C4.42547849,8.39698354 5.08697997,8.66171548 5.70687922,8.99578466 C5.39785774,9.21009484 5.17694265,9.16008647 4.9403316,9.15716318 C5.37877657,9.52283905 6.12426667,9.71306053 6.81635649,9.93379693 C6.68472971,10.1414622 6.55310293,10.1982561 6.27170432,10.256554 C7.00424212,10.6681004 8.05352524,10.4799487 8.34945216,10.6902589 C8.27800837,10.8971185 8.07653222,11.0317372 7.8350583,11.1441356 C9.01437266,11.2136508 12.2397021,11.1005657 12.8579643,8.62259693 C11.6506962,7.27612552 9.44711353,5.69522678 5.65644854,3.74089724 C8.60546276,4.74292379 11.2664033,6.07850934 13.4933919,7.91656569 C16.1114879,6.67904156 14.3067169,3.55790204 13.0294287,2.31874918 C12.9646667,2.64595459 12.8913099,2.85283174 12.8075336,2.91383241 C12.3916446,2.46125261 12.0518834,1.99779743 11.5165054,1.56228748 C11.5147637,1.81807347 11.6436056,2.09562338 11.3248686,2.29857685 C11.0378683,1.90656809 10.6498572,1.55664703 10.1347018,1.25970282 C10.3828351,1.69408904 10.1773261,1.82604748 10.0439264,2.00607833 C9.65046583,1.66354488 9.27673529,1.316627 8.55117545,1.0478935 L8.55117545,1.0478935 Z" id="Combined-Shape"></path>
                </g>
            </g>
        </g>
    </g>
</svg>