<svg height="90" viewBox="0 0 90 90" width="90" xmlns="http://www.w3.org/2000/svg"><g fill="none" fill-rule="evenodd"><circle cx="45" cy="45" fill="#f1f4fb" r="44.25" stroke="#e6edfd" stroke-width="1.5"/><g transform="translate(20 21)"><path d="m0 0h50v50h-50z"/><g stroke="#3753c9" stroke-linecap="round" stroke-linejoin="round" stroke-width="2" transform="translate(9.333333 6.25)"><path d="m27.125 37.5h-22.91666667c-2.30208333 0-4.16666666-1.8645833-4.16666666-4.1666667v-29.16666663c0-2.30208334 1.86458333-4.16666667 4.16666666-4.16666667h22.91666667c2.3020833 0 4.1666667 1.86458333 4.1666667 4.16666667v29.16666663c0 2.3020834-1.8645834 4.1666667-4.1666667 4.1666667z"/><path d="m19.833333 9.375h4.166667"/><path d="m19.833333 15.625h4.166667"/><path d="m7.333333 25h16.666667"/><path d="m7.333333 31.25h16.666667"/><g transform="translate(5.666667 6.875)"><path d="m6.46875 10.0453125h-3.6015625c-.79375 0-1.4359375-.64375-1.4359375-1.4359375v-2.775h5.0375c1.1546875 0 2.0890625.9359375 2.0890625 2.0890625v.03125c0 1.15625-.934375 2.090625-2.0890625 2.090625z"/><path d="m5.9625 5.834375h-4.5328125v-2.884375c0-.80625.653125-1.459375 1.459375-1.459375h3.0734375c1.171875 0 2.121875.95 2.121875 2.121875v.0984375c0 1.1734375-.95 2.1234375-2.121875 2.1234375z"/><path d="m4.28125.0625v1.4375"/><path d="m4.28125 11.46875v-1.421875"/><path d="m4.28125 1.5h-4.28125"/><path d="m4.28125 10.046875h-4.28125"/></g></g></g></g></svg>