<svg height="8" viewBox="0 0 11 8" width="11" xmlns="http://www.w3.org/2000/svg"><path d="m474.628433 530.203432.094207.083189 2.984467 2.984467c.360484.360484.388213.927715.083188 1.320006l-.083188.094207-2.984467 2.984467c-.390524.390524-1.023689.390524-1.414213 0-.360484-.360484-.388214-.927715-.083189-1.320006l.083189-.094208 1.253573-1.255826-6.562.000272c-.552285 0-1-.447715-1-1s.447715-1 1-1l6.606-.000272-1.297573-1.298893c-.360484-.360484-.388214-.927715-.083189-1.320007l.083189-.094207c.360484-.360484.927715-.388214 1.320006-.083189z" fill="#3753c9" fill-rule="evenodd" transform="translate(-467 -530)"/></svg>