<svg height="90" viewBox="0 0 90 90" width="90" xmlns="http://www.w3.org/2000/svg"><g fill="none" fill-rule="evenodd"><circle cx="45" cy="45" fill="#f1f4fb" r="44.25" stroke="#e6edfd" stroke-width="1.5"/><g transform="translate(20 20)"><path d="m0 0h50v50h-50z"/><g stroke="#3753c9" stroke-linecap="round" stroke-linejoin="round" stroke-width="2"><path d="m6.25 14.7125v-8.20208333c0-1.29375 1.05-2.34375 2.34375-2.34375h14.3229167c1.29375 0 2.34375 1.05 2.34375 2.34375v8.20416663c0 1.29375-1.05 2.34375-2.34375 2.34375h-14.3229167c-1.29375 0-2.34375-1.05-2.34375-2.3458333z"/><path d="m18.75 43.75h-8.92916667c-1.97083333 0-3.57083333-1.6-3.57083333-3.5708333v-8.9291667"/><path d="m33.3333333 6.25h6.8458334c1.9708333 0 3.5708333 1.6 3.5708333 3.57083333v6.84583337"/><path d="m15.75 17.0625v5.854167"/><path d="m11.583333 22.916667h8.333334"/></g><g transform="translate(18.75 20.833333)"><g stroke="#3753c9" stroke-linecap="round" stroke-linejoin="round" stroke-width="2" transform="translate(8.333333 4.166667)"><path d="m4.25347222 0v2.29166667c0 .42141203.27222222.76388889.60763889.76388889h4.86111111c.33541668 0 .60763888-.34247686.60763888-.76388889v-2.29166667"/><path d="m2.43055556 0h9.72222224c1.3428819 0 2.4305555 1.13946759 2.4305555 2.5462963v17.8240741c0 1.4068287-1.0876736 2.5462963-2.4305555 2.5462963h-9.72222224c-1.34288195 0-2.43055556-1.1394676-2.43055556-2.5462963v-17.8240741c0-1.40682871 1.08767361-2.5462963 2.43055556-2.5462963z"/></g><path d="m0 0h29.1666667v29.1666667h-29.1666667z"/></g></g></g></svg>