<svg height="80" viewBox="0 0 80 80" width="80" xmlns="http://www.w3.org/2000/svg"><g fill="none" fill-rule="evenodd"><rect height="80" rx="40" width="80"/><path d="m3.95277778 5.39861111c.04166666-.40972222-.11527778-.81388889-.42083334-1.08888889l-3.11111111-3.75v-.55972222h9.66388887l7.4694445 16.3819444 6.5666666-16.3819444h9.2125v.55972222l-2.6611111 2.55138889c-.2291666.175-.3430555.4625-.2958333.74722222v18.74722227c-.0472222.2833333.0666667.5708333.2958333.7458333l2.5986111 2.5513889v.5597222h-13.0722222v-.5597222l2.6930556-2.6138889c.2638889-.2638889.2638889-.3416667.2638889-.7458333v-15.15277782l-7.4847223 19.01111112h-1.0111111l-8.71527776-19.01111112v12.74166662c-.07222222.5347223.10555556 1.075.48194445 1.4611112l3.50138889 4.2472222v.5611111h-9.92777778v-.5611111l3.50138889-4.2472222c.375-.3875.54166667-.9305556.45138889-1.4611112z" fill="#172462" transform="translate(23.333333 26.666667)"/></g></svg>