<svg height="40" viewBox="0 0 40 40" width="40" xmlns="http://www.w3.org/2000/svg"><g fill="none" fill-rule="evenodd"><path d="m0 0h40v40h-40z"/><g stroke-linecap="round" stroke-linejoin="round" transform="translate(4 5)"><path d="m27.6666667 10.9166667h-1.6666667c-1.3342136 0-2.4166667 1.0824531-2.4166667 2.4166666v8.3333334c0 1.3342135 1.0824531 2.4166666 2.4166667 2.4166666h1.6666667c2.2558802 0 4.0833333-1.8274531 4.0833333-4.0833333v-5c0-2.2558802-1.8274531-4.0833333-4.0833333-4.0833333z" fill="#172462" fill-rule="nonzero"/><path d="m6 10.9166667h-1.66666667c-2.25588023 0-4.08333333 1.8274531-4.08333333 4.0833333v5c0 2.2558802 1.8274531 4.0833333 4.08333333 4.0833333h1.66666667c1.33421356 0 2.41666667-1.0824531 2.41666667-2.4166666v-8.3333334c0-1.3342135-1.08245311-2.4166666-2.41666667-2.4166666z" fill="#172462" fill-rule="nonzero"/><path d="m26.8333333 11.6666667v-.8333334c0-5.9833333-4.85-10.8333333-10.8333333-10.8333333-5.9833333 0-10.83333333 4.85-10.83333333 10.8333333v.8333334" stroke="#172462" stroke-width="1.5"/><path d="m17.0416667 25.5h-2.0833334c-1.5642135 0-2.8333333 1.2691198-2.8333333 2.8333333l.0056982.1750932c.1058077 1.5045779 1.338615 2.6582402 2.8276351 2.6582402h2.0833334c1.5642135 0 2.8333333-1.2691198 2.8333333-2.8333334l-.0056982-.1750931c-.1058077-1.504578-1.338615-2.6582402-2.8276351-2.6582402z" fill="#172462" fill-rule="nonzero"/><path d="m19.125 28.3333333h3.5416667c1.8416666 0 3.3333333-1.4916666 3.3333333-3.3333333v-1.6666667" stroke="#172462" stroke-width="1.5"/></g></g></svg>