<svg height="30" viewBox="0 0 27 30" width="27" xmlns="http://www.w3.org/2000/svg"><path d="m3.99400927.69843848.09199073.06856152 14.8628681 8.44208975.0247768-.0234197.3802232.2534197 1.0108124.57438065-.0108124.0096193 4.3676725 2.4736499c1.9100408 1.0778088 1.9679208 3.0617102.1754555 4.2062233l-.1734646.1047857-5.2439368 2.9778594-.0067266.0024817-15.3958681 8.7569103-.08908629.0647412c-.68547097.4538121-1.54168223.5229823-2.27707115.2173699l-.16842623.1677143-.54854822-.6267357-.5335529-.4751508.12292535-.1237366c-.22320259-.4373419-.32689582-.9231602-.29458848-1.3913943l.00105333-23.42178512c-.02663308-.49042614.07460868-.97517477.30109055-1.42253044l-.13048075-.13130275.5485529-.48909994.568216-.56722275.12694781.12535125c.74020681-.30922009 1.60368133-.23638287 2.28997735.22722023zm10.72199073 15.12156152-11.68313189 11.6830897.00517667-.0015223.1139717-.0574118.19253289-.1295463 14.55931873-8.2825196zm-12.98983066-13.15164951c-.00811298.08066449-.01009571.16372427-.00569908.24885143l-.00158569 23.50822868c-.00672336.1008481-.00198931.2012889.01356013.2994999l-.01157659-.0938408 11.98413189-11.9840897zm17.57769876 8.40373921-3.5738681 3.5749103 3.5858681 3.5860897 4.6986542-2.6692891c.9140064-.5222894.9953776-1.135156.245975-1.6671053l-.118641-.0791641-.1248717-.0743153zm-16.27399999-9.27599995 11.68613189 11.67791025 3.1878681-3.2119103-14.55899676-8.27089998-.09071445-.06114874c-.06865351-.05434608-.1426017-.09829577-.21981137-.13190801z" fill="#3753c9"/></svg>