<svg height="90" viewBox="0 0 90 90" width="90" xmlns="http://www.w3.org/2000/svg"><g fill="none" fill-rule="evenodd"><circle cx="45" cy="45" fill="#f1f4fb" r="44.25" stroke="#e6edfd" stroke-width="1.5"/><path d="m41.7535148 30.4166667h3.2464852c-.8124081 1.3446263-5.7639664 1.3469732-5.7639664 4.1666807v21.668754c-.462076 4.9985991 1.1703762 7.4978986 4.8973568 7.4978986.034168 0-2.2347526 0-6.8067617 0l-2.7432954-3.0808842v-26.9081779l1.7962064-2.3902937 2.3704603-.9539775z" fill="#fff"/><g transform="translate(20 20)"><path d="m0 0h50v50h-50z"/><g stroke="#3753c9" stroke-linecap="round" stroke-linejoin="round" stroke-width="2"><path d="m38.3629167 7.47039583c1.6271854 1.62718542 1.6271854 4.26537497 0 5.89256247-1.6271855 1.6271854-4.265375 1.6271854-5.8925625 0-1.6271855-1.6271854-1.6271855-4.26537497 0-5.89256247 1.6271854-1.62718541 4.265375-1.62718541 5.8925625 0"/><path d="m22.625 38.541667h4.6875"/><path d="m35.4166667 20.8333333v18.75c0 2.3020834-1.8645834 4.1666667-4.1666667 4.1666667h-12.5c-2.3020833 0-4.1666667-1.8645833-4.1666667-4.1666667v-25c0-2.3020833 1.8645834-4.1666666 4.1666667-4.1666666h6.25"/></g></g></g></svg>