<svg height="90" viewBox="0 0 90 90" width="90" xmlns="http://www.w3.org/2000/svg"><g fill="none" fill-rule="evenodd"><circle cx="45" cy="45" fill="#f1f4fb" r="44.25" stroke="#e6edfd" stroke-width="1.5"/><g transform="translate(20 21)"><g stroke="#3753c9" stroke-linecap="round" stroke-linejoin="round" stroke-width="2" transform="translate(7.083333 6.25)"><path d="m22.0833333 34.0270833h5.55625c3.8354167 0 6.94375-3.1083333 6.94375-6.94375"/><path d="m25.55625 37.5-3.4729167-3.4729167 3.4729167-3.4708333"/><path d="m13.75 3.47291667h-5.55625c-3.83541667 0-6.94375 3.10833333-6.94375 6.94375003"/><path d="m10.2770833 0 3.4729167 3.47291667-3.4729167 3.47083333"/><path d="m30.99375 17.7083333h-6.8104167c-.0083333 0-.0166666-.0083333-.0166666-.0166666v-7.1458334c0-.0083333.0083333-.0166666.0166666-.0166666h6.8104167c1.9833333 0 3.5895833 1.60625 3.5895833 3.5895833 0 1.9833333-1.60625 3.5895833-3.5895833 3.5895833z"/><path d="m24.1666667 10.5291667v-7.4041667h5.9145833c2.04375 0 3.7020833 1.65833333 3.7020833 3.70208333 0 2.04375-1.66875 3.70208337-3.725 3.70208337"/><path d="m28.333333 3.125v-2.083333"/><path d="m28.333333 19.791667v-2.083334"/><path d="m6.66666667 38.75-6.25-11.2481209 6.25-11.2518791 6.25000003 11.2518791z"/><path d="m.41666667 27.5018791 6.25 2.2619828 6.25000003-2.2638619"/></g><path d="m0 0h50v50h-50z"/></g></g></svg>