<svg height="40" viewBox="0 0 40 40" width="40" xmlns="http://www.w3.org/2000/svg"><g fill="none" fill-rule="evenodd"><path d="m40 0v40h-40v-40z"/><g fill="#172462"><path d="m31 4c1.6568542 0 3 1.34314575 3 3l.0013025 11.8072815c-1.6584986-.9890446-3.5969648-1.5572815-5.6679692-1.5572815-6.1204497 0-11.0833333 4.9628836-11.0833333 11.0833333 0 2.0710044.5682369 4.0094706 1.5572815 5.6679692l-11.8072815-.0013025c-1.65685425 0-3-1.3431458-3-3v-24c0-1.65685425 1.34314575-3 3-3zm-16 20.25h-5l-.10177056.0068466c-.36607556.0496624-.64822944.3634576-.64822944.7431534s.28215388.693491.64822944.7431534l.10177056.0068466h5l.1017706-.0068466c.3660755-.0496624.6482294-.3634576.6482294-.7431534 0-.4142136-.3357864-.75-.75-.75zm3.3333333-6.6666667h-8.3333333l-.10177056.0068466c-.36607556.0496625-.64822944.3634577-.64822944.7431534 0 .3796958.28215388.693491.64822944.7431534l.10177056.0068466h8.3333333l.1017706-.0068466c.3660756-.0496624.6482294-.3634576.6482294-.7431534 0-.4142135-.3357864-.75-.75-.75zm8.3333334-6.6666666h-16.6666667l-.10177056.0068466c-.36607556.0496624-.64822944.3634576-.64822944.7431534 0 .3796957.28215388.6934909.64822944.7431534l.10177056.0068466h16.6666667l.1017705-.0068466c.3660756-.0496625.6482295-.3634577.6482295-.7431534 0-.4142136-.3357865-.75-.75-.75z"/><path d="m28.3333333 19.25c5.0158803 0 9.0833334 4.0674531 9.0833334 9.0833333 0 5.0158803-4.0674531 9.0833334-9.0833334 9.0833334-5.0158802 0-9.0833333-4.0674531-9.0833333-9.0833334 0-5.0158802 4.0674531-9.0833333 9.0833333-9.0833333zm0 12.75-.1043302.0065096c-.4102265.0515508-.7290031.4029343-.7290031.8268237 0 .4592136.3741198.8333334.8333333.8333334.4592136 0 .8333334-.3741198.8333334-.8333334 0-.4238894-.3187766-.7752729-.7290031-.8268237zm0-8.585c-1.8015313 0-3.2716469 1.4234556-3.3427469 3.2203469-.0163769.4138897.3058709.7626897.7197605.7790667.4138897.0163769.7626897-.3058709.7790667-.7197605.0393535-.9945716.8501695-1.7796531 1.8439197-1.7796531 1.0251367 0 1.855.8302302 1.855 1.855 0 1.0241198-.8308802 1.855-1.855 1.855l-.1017705.0068466c-.3660756.0496624-.6482295.3634576-.6482295.7431534 0 .4142136.3357865.75.75.75 1.8525469 0 3.355-1.5024531 3.355-3.355 0-1.8530485-1.5012877-3.355-3.355-3.355z" fill-rule="nonzero"/></g></g></svg>