<svg height="80" viewBox="0 0 80 80" width="80" xmlns="http://www.w3.org/2000/svg" xmlns:xlink="http://www.w3.org/1999/xlink"><mask id="a" fill="#fff"><path d="m.00035443.00030075h36.76353447v30.74546345h-36.76353447z" fill="#fff" fill-rule="evenodd"/></mask><g fill="none" fill-rule="evenodd"><rect height="80" rx="40" width="80"/><path d="m1.66027778 13.2852778 29.77777782-12.38055558s3.1944444-1.49722222 4.5861111-.63888889c1.2361111.76111111.55 4.225.55 4.225l-3.5666667 23.01388887s-.7444444 5.1777778-4.9 2.4444445c-4.15-2.7333334-10.5055556-7.0166667-10.5055556-7.0166667s-2.8277777-1.5111111-1.15-3.6416667c1.6805556-2.1333333 10.0333334-9.56944441 10.0333334-9.56944441s1.5083333-1.225 1.1361111-1.71666667c-.375-.49166666-1.2-.10277778-2.1666667.53333334l-13.9888889 9.24722224s-1.0333333.8888889-3.66666663.6222222l-6.93611111-2.0333333s-1.2-.4888889-.76944445-1.8805556c0 0 .38055556-.7138889 1.56666667-1.2083333" fill="#172462" mask="url(#a)" transform="translate(18.666667 26)"/></g></svg>