<svg height="40" viewBox="0 0 40 40" width="40" xmlns="http://www.w3.org/2000/svg"><g fill="none" fill-rule="evenodd"><path d="m0 0h40v40h-40z"/><g stroke-linecap="round" stroke-linejoin="round" transform="translate(3.333333 6.666667)"><path d="m1.66666667 8.33333333v-5c0-1.84166666 1.49166666-3.33333333 3.33333333-3.33333333h23.3333333c1.8416667 0 3.3333334 1.49166667 3.3333334 3.33333333v19.99999997c0 1.8416667-1.4916667 3.3333334-3.3333334 3.3333334h-10" stroke="#172462" stroke-width="2"/><path d="m7.67333333 21.9433333h-3.68c-1.28415387 0-2.52074935.4849964-3.46383142 1.3574025-.55666357.5146929-.99186579 1.1486356-1.27251614 1.8535762l-.41821614 1.0497057c-.3270372.8208504.27763055 1.712649 1.16123037 1.712649h11.6666667c.8835998 0 1.4882675-.8917986 1.1612303-1.712649l-.4183333-1.05c-.2805332-.7046463-.7157354-1.338589-1.2726242-1.8534902-.9406242-.8723373-2.17892778-1.3571942-3.46360617-1.3571942z" fill="#172462" fill-rule="nonzero"/><path d="m2.88611652 13.3044499c1.57398773-1.5739878 4.09209928-1.626454 5.72746171-.1568145l.16342177.1553646c1.5740518 1.5736181 1.6264574 4.0907371.1591003 5.7280526l-.15721682.1661642c-1.62638098 1.626381-4.26400523 1.626381-5.89276696 0-1.62638097-1.626381-1.62638097-4.2640052 0-5.8927669z" fill="#172462" fill-rule="nonzero"/><g stroke="#172462" stroke-width="2"><path d="m15 18.333333v-10"/><path d="m20 18.333333v-5.533333"/><path d="m25 18.333333v-9.083333"/></g></g></g></svg>