<svg height="80" viewBox="0 0 80 80" width="80" xmlns="http://www.w3.org/2000/svg" xmlns:xlink="http://www.w3.org/1999/xlink"><mask id="a" fill="#fff"><path d="m.00005556.12122222h39.70087034v33.39729628h-39.70087034z" fill="#fff" fill-rule="evenodd"/></mask><g fill="none" fill-rule="evenodd"><rect height="80" rx="40" width="80"/><g fill="#172462" transform="translate(20 24)"><path d="m22.2041481 13.3439074c-.8624074 0-1.5622222.6992593-1.5622222 1.5616667 0 .8627778.6998148 1.5624074 1.5622222 1.5624074.8622223 0 1.5618519-.6996296 1.5618519-1.5624074 0-.8624074-.6996296-1.5616667-1.5618519-1.5616667"/><path d="m31.5655926 13.3439074c-.8627778 0-1.5616667.6992593-1.5616667 1.5616667 0 .8627778.6988889 1.5624074 1.5616667 1.5624074.8622222 0 1.5618518-.6996296 1.5618518-1.5624074 0-.8624074-.6996296-1.5616667-1.5618518-1.5616667"/><path d="m35.3798704 18.1945556c0 3.8351851-3.5514815 3.7970444-3.5514815 3.7970444h-.9444445v-2.1531556h.5853704c1.7198148 0 1.5488889-1.7757407 1.5488889-1.7757407v-.5674074c-.7551852.9824074-2.1342593.9259259-2.1342593.9259259-3.382037 0-3.3438983-3.6053703-3.3438983-3.6053703 0-3.87 3.438528-3.7248149 3.438528-3.7248149 1.3411111 0 2.0396296.9251852 2.0396296.9251852v-.6796296h2.3616667zm-9.067963-3.352963c0 3.6938889-4.1083333 3.6998148-4.1083333 3.6998148-4.1457408 0-4.0157408-3.6998148-4.0157408-3.6998148 0-3.75 4.0157408-3.7505556 4.0157408-3.7505556 4.2422222 0 4.1083333 3.7505556 4.1083333 3.7505556zm-9.8368518-3.1018519v6.5488889h-2.3425926v-5.9946296c0-2.0659259-1.1092593-2.0155556-1.1092593-2.0155556v-2.34296292c3.5522222 0 3.4518519 3.80425922 3.4518519 3.80425922zm-7.65796301 6.8016667c-1.46185185 0-2.04111111-1.0461111-2.04111111-1.0461111v.7933333h-2.45611111v-10.12666664h2.43111111v3.85425924c.98240741-.9566666 2.06611111-.9566666 2.06611111-.9566666 3.29944441 0 3.42555551 3.7031481 3.42555551 3.7031481 0 3.6525926-3.42555551 3.7787037-3.42555551 3.7787037zm24.61370371-18.42018518h-27.16055556c-3.46351852 0-6.27018518 2.81722222-6.27018518 6.29259259v14.92777779c0 3.4753704 2.80666666 6.2927778 6.27018518 6.2927778h9.35537036l3.1931482 5.1985185s.0342592.0614815.1038888.1477778c.1864815.3198148.5305556.5379629.9272223.5379629.3951852 0 .7368518-.215.9246296-.5314815.0801852-.0938888.1075926-.155.1075926-.155l3.192963-5.1977777h9.3557407c3.4622222 0 6.2701852-2.8174074 6.2701852-6.2927778v-14.92777779c0-3.47537037-2.807963-6.29259259-6.2701852-6.29259259z" mask="url(#a)" transform="translate(0 .064074)"/><path d="m8.28172222 13.3439074c-.86203703 0-1.56222222.6992593-1.56222222 1.5616667 0 .8627778.70018519 1.5624074 1.56222222 1.5624074.86240741 0 1.56185185-.6996296 1.56185185-1.5624074 0-.8624074-.69944444-1.5616667-1.56185185-1.5616667"/></g></g></svg>