<svg height="20" viewBox="0 0 106 20" width="106" xmlns="http://www.w3.org/2000/svg"><path d="m296.994506 134.14736c.481745 0 .723023.245333.723023.735467v3.653866l-4.975222 3.169867.013284-.448v-2.402933c0-.1632-.074824-.245334-.224471-.245334h-8.677089c-.997376 0-1.699525.2048-2.106716.613067-.407734.4088-.611059 1.161067-.611059 2.255733v2.991734c0 1.062933.199529 1.810933.598588 2.243733.398788.433333 1.105274.649867 2.119187.649867h13.589145l1.618737 4.6344h-15.656552c-1.346553 0-2.493305-.1672-3.441069-.502934-.947223-.334666-1.711995-.8088-2.293775-1.421866-.582052-.613067-1.006052-1.3568-1.271729-2.231467-.26622-.874133-.398788-1.851467-.398788-2.9304v-3.678133c0-1.078934.132568-2.055467.398788-2.930134.265677-.874666.689677-1.6184 1.271729-2.231466.58178-.613067 1.346552-1.086934 2.293775-1.4224.947764-.334667 2.094516-.502667 3.441069-.502667zm14.686097 4.389333c1.013642 0 1.878179.126934 2.593069.380267.714348.253333 1.296399.6128 1.74534 1.078667.448941.466133.772906 1.029866.972435 1.692266.199529.661867.299294 1.3936.299294 2.1944v2.770667c0 .817867-.099765 1.5536-.299294 2.2072-.199529.654133-.523494 1.213867-.972435 1.679733-.448941.465867-1.030992.825867-1.74534 1.078934-.71489.2536-1.579427.38-2.593069.38h-6.582573c-1.014455 0-1.874383-.1264-2.580869-.38-.706757-.253067-1.2842-.613067-1.73287-1.078934-.448941-.465866-.772905-1.0256-.972435-1.679733-.199529-.6536-.299294-1.389333-.299294-2.2072v-2.770667c0-.8008.099765-1.532533.299294-2.1944.19953-.6624.523494-1.226133.972435-1.692266.44867-.465867 1.026113-.825334 1.73287-1.078667.706486-.253333 1.566414-.380267 2.580869-.380267zm12.2173.000107v13.462133h-4.512998v-13.462133zm13.489516-.000027c1.013913 0 1.877908.126934 2.593069.38.714348.2536 1.292333.613067 1.733141 1.078934.440266.465866.760164 1.025866.959964 1.68.198988.6536.299023 1.389333.299023 2.2064v8.1168h-4.512726v-7.8224c0-.784534-.149918-1.332-.449212-1.642667-.299023-.3104-.789714-.465867-1.470987-.465867h-4.887387l-.737933-.0024-.184619.0008v9.932534h-4.512998v-13.462134zm25.083396-2.914106v11.0304c0 .817866-.099765 1.5536-.299294 2.206933-.19953.6544-.519698 1.214133-.959964 1.68-.440538.465867-1.018251.8256-1.73287 1.078667-.714619.2536-1.58756.380266-2.61801.380266h-6.208727c-1.013913 0-1.874383-.126666-2.580598-.380266-.706486-.253067-1.280133-.6128-1.720399-1.078667-.440537-.465867-.760435-1.0256-.959964-1.68-.19953-.653333-.299294-1.389067-.299294-2.206933v-10.906667h4.512726v10.3184c0 .752267.158322 1.270933.474425 1.557067.315289.286133.85559.429333 1.620363.429333h4.114209c.797847 0 1.354415-.150933 1.670788-.453867.31556-.302133.473611-.813066.473611-1.532533v-10.442133zm18.637701 2.888026c.415324 0 .623529.2048.623529.287734v3.016l-4.069749 1.828533.005693-.2176v-1.408c0-.130933-.058558-.196267-.175131-.196267h-7.131007c-.249412 0-.424.049067-.523494.146934-.099765.098133-.149647.2616-.149647.4904v.368c0 .229066.037683.376266.112235.441333.074824.0656.211729.1144.41153.1472l8.701759.833867c.58178.0488 1.063525.155466 1.446046.318666.382522.163467.689949.38.922824.6496.232603.269867.394721.6008.486082.993067.091089.392267.137176.8504.137176 1.373333v1.005334c0 1.078933-.286823 1.9128-.860199 2.501333-.573376.588267-1.592169.882667-3.05421.882667h-15.436962l1.679192-3.776267h12.386276c.265678 0 .448942-.053067.548706-.159467.099494-.1064.149376-.281866.149376-.5272v-.2944c0-.179466-.033887-.3144-.099493-.404266-.066691-.0896-.19953-.1432-.399059-.159467l-8.502773-.7112c-1.046987-.081867-1.820163-.400533-2.318716-.956533-.498823-.555467-.747964-1.299467-.747964-2.2312v-1.078934c0-.981066.274353-1.753333.822788-2.317333.548163-.563733 1.446046-.845867 2.692834-.845867zm-70.250972 3.5572h-4.912056c-.71489 0-1.209105.1512-1.483458.4536-.274353.302667-.411258.8544-.411258 1.654934v1.888266c0 .7688.136905 1.291734.411258 1.569334.274353.278133.768568.417066 1.483458.417066h4.912056c.714619 0 1.213172-.138933 1.4962-.417066.282486-.2776.423729-.800534.423729-1.569334v-1.888266c0-.8168-.145852-1.373067-.4362-1.6672-.291161-.294134-.785376-.441334-1.483729-.441334zm13.040359-10.067893v4.427733h-4.512998v-3.555466z" fill="#172462" fill-rule="evenodd" transform="translate(-276 -132)"/></svg>