<svg height="17" viewBox="0 0 90 17" width="90" xmlns="http://www.w3.org/2000/svg" xmlns:xlink="http://www.w3.org/1999/xlink"><filter id="a"><feColorMatrix in="SourceGraphic" type="matrix" values="0 0 0 0 1.000000 0 0 0 0 1.000000 0 0 0 0 1.000000 0 0 0 1.000000 0"/></filter><g fill="none" fill-rule="evenodd" filter="url(#a)"><g fill="#000"><path d="m14.2151662 8.250576.0112788-.3808v-2.04249333c0-.13872-.0635294-.20853334-.1905882-.20853334h-7.36734018c-.84682864 0-1.44299232.17408-1.78872122.52110667-.34618926.34748-.51882353.98690667-.51882353 1.91737333v2.54297337c0 .9034933.16941176 1.5392933.50823529 1.9071733.33859335.3683333.9384399.5523867 1.79930946.5523867h11.53795398l1.374399 3.93924h-13.29329927c-1.14329923 0-2.11695652-.14212-2.9216624-.4274934-.80424553-.2844666-1.45358056-.68748-1.94754476-1.2085866-.49419437-.5211067-.85419437-1.15328-1.07976982-1.8967467-.2260358-.7430133-.33859335-1.5737467-.33859335-2.49084v-3.12641333c0-.91709334.11255755-1.74714667.33859335-2.49061334.22557545-.74346666.58557545-1.37564 1.07976982-1.89674666.4939642-.52110667 1.14329923-.92389334 1.94754476-1.20904.80470588-.28446667 1.77836317-.42726667 2.9216624-.42726667h11.53795397c.4090281 0 .6138875.20853333.6138875.62514667v3.10578666z"/><path d="m29.5960281 13.6434293c.606752 0 1.0300512-.1180933 1.2703581-.3545066.2398465-.23596.3597698-.6804534.3597698-1.3339334v-1.6050266c0-.69428003-.1238363-1.1671067-.370358-1.41712003-.2472123-.25001334-.6668287-.37513334-1.2597699-.37513334h-4.1706138c-.6069821 0-1.0265984.12852-1.2595396.38556-.2329412.25726667-.3491816.72624-.3491816 1.40669337v1.6050266c0 .65348.1162404 1.0979734.3491816 1.3339334.2329412.2364133.6525575.3545066 1.2595396.3545066zm5.4621484-1.1884133c0 .6951867-.0847059 1.32056-.2541177 1.87612-.1694117.5560133-.4444757 1.0317867-.8256522 1.4277733-.3811764.3959867-.8753708.7019867-1.4818925.9170934-.6069821.21556-1.3410231.323-2.2016624.323h-5.588977c-.8613299 0-1.5914578-.10744-2.1913044-.323-.6000767-.2151067-1.090358-.5211067-1.4713043-.9170934-.3811765-.3959866-.6562404-.87176-.8256522-1.4277733-.1694118-.55556-.2541176-1.1809333-.2541176-1.87612v-2.3550667c0-.68067997.0847058-1.3026533.2541176-1.86523997.1694118-.56304.4444757-1.04221333.8256522-1.43842666.3809463-.39598667.8712276-.70153334 1.4713043-.91686667.5998466-.21533333 1.3299745-.32322667 2.1913044-.32322667h5.588977c.8606393 0 1.5946803.10789334 2.2016624.32322667.6065217.21533333 1.1007161.52088 1.4818925.91686667.3811765.39621333.6562405.87538666.8256522 1.43842666.1694118.56258667.2541177 1.18456.2541177 1.86523997z"/><path d="m36.8362404 16.9990933h3.8317903v-11.4428133h-3.8317903zm0-13.23551997v-3.02214666l3.8317903-.74142667v3.76357333z"/><path d="m42.636867 5.55625733h9.4845269c.8608695 0 1.5944501.10789334 2.2016624.323.6065217.21556 1.0972634.52110667 1.4715345.91709334.3738107.39598666.645422.87198666.8150639 1.428.1689514.55556.2538875 1.18093333.2538875 1.87544003v6.89928h-3.8315601v-6.64904c0-.66685337-.127289-1.13220003-.3814067-1.3962667-.2538874-.26384-.6705115-.39598667-1.2489514-.39598667h-4.1496675l-.6265473-.00204-.1567519.00068v8.44265337h-3.8317903z"/><path d="m58.6627596 3.18444h3.8315601v8.77064c0 .6394267.1344245 1.0802933.4028133 1.3235067.2676982.2432133.726445.3649333 1.37578.3649333h3.493197c.6774169 0 1.1499744-.1282933 1.4185933-.3857867.2679284-.2568133.4021228-.6911066.4021228-1.3026533v-8.87581333h3.8317903v9.37584003c0 .6951866-.0847059 1.32056-.2541177 1.8758933-.1694117.55624-.4412532 1.0320133-.8150639 1.428-.3740409.3959867-.8645524.70176-1.4713044.9168667-.6067519.21556-1.3479284.3232266-2.2228388.3232266h-5.2715601c-.8608696 0-1.5914578-.1076666-2.1910742-.3232266-.5998466-.2151067-1.0869054-.52088-1.4607161-.9168667-.3740409-.3959867-.6456522-.87176-.815064-1.428-.1694117-.5553333-.2541176-1.1807067-.2541176-1.8758933z"/><path d="m73.490087 16.9769027 1.4257289-3.2098267h10.5166496c.2255754 0 .3811764-.0451067.4658823-.1355467.0844757-.09044.1268287-.2395866.1268287-.44812v-.25024c0-.1525466-.0287724-.26724-.0844757-.3436266-.0566241-.07616-.1694118-.12172-.3388236-.1355467l-7.219335-.60452c-.8889514-.0695867-1.545422-.3404533-1.9687212-.8130533-.4235294-.4721467-.635064-1.1045467-.635064-1.89652003v-.91709334c0-.83390666.2329412-1.49033333.6985934-1.96973333.465422-.47917333 1.2277749-.71898667 2.2863683-.71898667h10.4793606c.3526343 0 .5294117.17408.5294117.24457334v2.5636l-3.4554475 1.55425333.0048337-.18496v-1.1968c0-.11129333-.0497186-.16682667-.1486956-.16682667h-6.0546292c-.2117647 0-.36.04170667-.4444757.12489334-.0847059.08341333-.1270588.22236-.1270588.41684v.3128c0 .19470666.0319949.31982666.0952941.37513333.0635294.05576.1797698.09724.3494118.12512l7.3882864.7087867c.4939642.04148.9029924.1321466 1.227775.2708666.3247826.1389467.5858056.323.7835294.55216.1974936.2293867.3351406.51068.412711.8441067.0773401.3334267.1164706.72284.1164706 1.1673333v.8545334c0 .9170933-.2435294 1.62588-.7303581 2.1261333-.4868286.5000267-1.3518414.7502667-2.5931969.7502667z"/></g></g></svg>